<svg xmlns="http://www.w3.org/2000/svg" xmlns:xlink="http://www.w3.org/1999/xlink" width="1920" zoomAndPan="magnify" viewBox="0 0 1440 809.999993" height="1080" preserveAspectRatio="xMidYMid meet" version="1.0"><defs><g/><clipPath id="9a00969fda"><path d="M 44 167.203125 L 351 167.203125 L 351 567 L 44 567 Z M 44 167.203125 " clip-rule="nonzero"/></clipPath><clipPath id="95578a5732"><path d="M 68 243 L 375.152344 243 L 375.152344 642.703125 L 68 642.703125 Z M 68 243 " clip-rule="nonzero"/></clipPath></defs><g clip-path="url(#9a00969fda)"><path fill="#5f1d72" d="M 81.070312 516.742188 C 87.890625 516.742188 93.40625 522.289062 93.40625 529.109375 C 93.40625 535.929688 87.890625 541.449219 81.070312 541.449219 C 74.246094 541.449219 68.730469 535.929688 68.730469 529.109375 C 68.730469 522.289062 74.246094 516.742188 81.070312 516.742188 Z M 68.894531 450.195312 L 68.894531 494.117188 C 54.421875 499.136719 44.023438 512.917969 44.023438 529.109375 C 44.023438 549.574219 60.605469 566.15625 81.070312 566.15625 C 101.53125 566.15625 118.113281 549.574219 118.113281 529.109375 C 118.113281 512.917969 107.742188 499.136719 93.242188 494.089844 L 93.242188 468.71875 L 93.296875 468.71875 L 93.296875 221.1875 L 350.226562 221.1875 L 350.226562 191.464844 C 350.199219 178.070312 339.300781 167.203125 325.882812 167.203125 L 93.242188 167.203125 C 79.820312 167.203125 68.953125 178.070312 68.894531 191.464844 L 68.894531 221.1875 L 68.925781 221.1875 L 68.925781 450.195312 Z M 171.15625 194.179688 C 171.15625 191.601562 173.265625 189.496094 175.84375 189.496094 L 243.277344 189.496094 C 245.859375 189.496094 247.964844 191.601562 247.964844 194.179688 C 247.964844 196.789062 245.859375 198.894531 243.277344 198.894531 L 243.277344 198.921875 L 175.84375 198.921875 L 175.84375 198.894531 C 173.265625 198.894531 171.15625 196.789062 171.15625 194.179688 " fill-opacity="1" fill-rule="evenodd"/></g><g clip-path="url(#95578a5732)"><path fill="#a347c3" d="M 185.300781 606.359375 C 185.464844 606.359375 185.632812 606.359375 185.796875 606.359375 L 233.324219 606.359375 C 233.492188 606.359375 233.65625 606.359375 233.851562 606.359375 C 239.0625 606.359375 243.277344 610.574219 243.277344 615.789062 C 243.277344 621 239.0625 625.242188 233.851562 625.242188 C 233.683594 625.242188 233.492188 625.242188 233.324219 625.214844 L 185.796875 625.214844 C 185.632812 625.242188 185.464844 625.242188 185.300781 625.242188 C 180.085938 625.242188 175.84375 621 175.84375 615.789062 C 175.84375 610.574219 180.085938 606.359375 185.300781 606.359375 Z M 338.082031 293.253906 C 331.261719 293.253906 325.742188 287.707031 325.742188 280.886719 C 325.742188 274.066406 331.261719 268.546875 338.082031 268.546875 C 344.902344 268.546875 350.449219 274.066406 350.449219 280.886719 C 350.449219 287.707031 344.902344 293.253906 338.082031 293.253906 Z M 325.882812 588.808594 L 68.894531 588.808594 L 68.894531 618.535156 C 68.953125 631.925781 79.820312 642.796875 93.242188 642.796875 L 325.882812 642.796875 C 339.300781 642.796875 350.199219 631.925781 350.226562 618.535156 L 350.226562 359.773438 L 350.28125 359.773438 L 350.28125 315.878906 C 364.757812 310.832031 375.152344 297.082031 375.152344 280.886719 C 375.152344 260.425781 358.542969 243.84375 338.082031 243.84375 C 317.617188 243.84375 301.035156 260.425781 301.035156 280.886719 C 301.035156 297.082031 311.433594 310.863281 325.910156 315.878906 L 325.910156 341.277344 L 325.882812 341.277344 L 325.882812 588.808594 " fill-opacity="1" fill-rule="evenodd"/></g><g fill="#5f1d72" fill-opacity="1"><g transform="translate(400.789966, 477.249712)"><g><path d="M 45.984375 -189.625 L 72.53125 -189.625 C 83.75 -189.625 92.238281 -186.738281 98 -180.96875 C 103.769531 -175.207031 106.65625 -166.71875 106.65625 -155.5 L 106.65625 -130.359375 C 106.65625 -127.835938 105.394531 -126.578125 102.875 -126.578125 L 78.21875 -126.578125 C 75.6875 -126.578125 74.421875 -127.835938 74.421875 -130.359375 L 74.421875 -148.859375 C 74.421875 -155.179688 71.265625 -158.34375 64.953125 -158.34375 L 53.5625 -158.34375 C 47.25 -158.34375 44.09375 -155.179688 44.09375 -148.859375 L 44.09375 -116.140625 L 100.5 -97.65625 C 104.601562 -95.914062 106.65625 -92.992188 106.65625 -88.890625 L 106.65625 -34.125 C 106.65625 -23.070312 103.769531 -14.617188 98 -8.765625 C 92.238281 -2.921875 83.75 0 72.53125 0 L 45.984375 0 C 34.921875 0 26.460938 -2.921875 20.609375 -8.765625 C 14.765625 -14.617188 11.84375 -23.070312 11.84375 -34.125 L 11.84375 -59.015625 C 11.84375 -61.546875 13.109375 -62.8125 15.640625 -62.8125 L 40.296875 -62.8125 C 42.828125 -62.8125 44.09375 -61.546875 44.09375 -59.015625 L 44.09375 -40.765625 C 44.09375 -34.441406 47.25 -31.28125 53.5625 -31.28125 L 64.953125 -31.28125 C 71.265625 -31.28125 74.421875 -34.441406 74.421875 -40.765625 L 74.421875 -72.296875 L 18.25 -90.78125 C 13.976562 -92.207031 11.84375 -95.128906 11.84375 -99.546875 L 11.84375 -155.5 C 11.84375 -166.71875 14.765625 -175.207031 20.609375 -180.96875 C 26.460938 -186.738281 34.921875 -189.625 45.984375 -189.625 Z M 45.984375 -189.625 "/></g></g></g><g fill="#5f1d72" fill-opacity="1"><g transform="translate(531.144346, 477.249712)"><g><path d="M 74.421875 -110.453125 L 74.421875 -185.828125 C 74.421875 -188.359375 75.6875 -189.625 78.21875 -189.625 L 102.640625 -189.625 C 105.316406 -189.625 106.65625 -188.359375 106.65625 -185.828125 L 106.65625 -3.796875 C 106.65625 -1.265625 105.316406 0 102.640625 0 L 78.21875 0 C 75.6875 0 74.421875 -1.265625 74.421875 -3.796875 L 74.421875 -79.171875 L 44.09375 -79.171875 L 44.09375 -3.796875 C 44.09375 -1.265625 42.828125 0 40.296875 0 L 15.875 0 C 13.1875 0 11.84375 -1.265625 11.84375 -3.796875 L 11.84375 -185.828125 C 11.84375 -188.359375 13.1875 -189.625 15.875 -189.625 L 40.296875 -189.625 C 42.828125 -189.625 44.09375 -188.359375 44.09375 -185.828125 L 44.09375 -110.453125 Z M 74.421875 -110.453125 "/></g></g></g><g fill="#5f1d72" fill-opacity="1"><g transform="translate(661.498726, 477.249712)"><g><path d="M 11.84375 -34.125 L 11.84375 -155.5 C 11.84375 -166.71875 14.765625 -175.207031 20.609375 -180.96875 C 26.460938 -186.738281 34.921875 -189.625 45.984375 -189.625 L 72.53125 -189.625 C 83.75 -189.625 92.238281 -186.738281 98 -180.96875 C 103.769531 -175.207031 106.65625 -166.71875 106.65625 -155.5 L 106.65625 -34.125 C 106.65625 -23.070312 103.769531 -14.617188 98 -8.765625 C 92.238281 -2.921875 83.75 0 72.53125 0 L 45.984375 0 C 34.921875 0 26.460938 -2.921875 20.609375 -8.765625 C 14.765625 -14.617188 11.84375 -23.070312 11.84375 -34.125 Z M 52.859375 -30.578125 L 66.609375 -30.578125 C 72.929688 -30.578125 76.09375 -33.738281 76.09375 -40.0625 L 76.09375 -149.5625 C 76.09375 -155.882812 72.929688 -159.046875 66.609375 -159.046875 L 52.859375 -159.046875 C 46.535156 -159.046875 43.375 -155.882812 43.375 -149.5625 L 43.375 -40.0625 C 43.375 -33.738281 46.535156 -30.578125 52.859375 -30.578125 Z M 52.859375 -30.578125 "/></g></g></g><g fill="#5f1d72" fill-opacity="1"><g transform="translate(791.853106, 477.249712)"><g><path d="M 11.84375 -3.796875 L 11.84375 -185.828125 C 11.84375 -188.359375 13.109375 -189.625 15.640625 -189.625 L 72.53125 -189.625 C 83.75 -189.625 92.238281 -186.738281 98 -180.96875 C 103.769531 -175.207031 106.65625 -166.71875 106.65625 -155.5 L 106.65625 -97.65625 C 106.65625 -86.59375 103.769531 -78.140625 98 -72.296875 C 92.238281 -66.453125 83.75 -63.53125 72.53125 -63.53125 L 44.09375 -63.53125 L 44.09375 -3.796875 C 44.09375 -1.265625 42.828125 0 40.296875 0 L 15.640625 0 C 13.109375 0 11.84375 -1.265625 11.84375 -3.796875 Z M 44.09375 -94.8125 L 64.953125 -94.8125 C 71.265625 -94.8125 74.421875 -97.972656 74.421875 -104.296875 L 74.421875 -148.859375 C 74.421875 -155.179688 71.265625 -158.34375 64.953125 -158.34375 L 44.09375 -158.34375 Z M 44.09375 -94.8125 "/></g></g></g><g fill="#5f1d72" fill-opacity="1"><g transform="translate(922.207486, 477.249712)"><g><path d="M 11.84375 -3.796875 L 11.84375 -185.828125 C 11.84375 -188.359375 13.109375 -189.625 15.640625 -189.625 L 72.53125 -189.625 C 83.75 -189.625 92.238281 -186.738281 98 -180.96875 C 103.769531 -175.207031 106.65625 -166.71875 106.65625 -155.5 L 106.65625 -97.65625 C 106.65625 -86.59375 103.769531 -78.140625 98 -72.296875 C 92.238281 -66.453125 83.75 -63.53125 72.53125 -63.53125 L 44.09375 -63.53125 L 44.09375 -3.796875 C 44.09375 -1.265625 42.828125 0 40.296875 0 L 15.640625 0 C 13.109375 0 11.84375 -1.265625 11.84375 -3.796875 Z M 44.09375 -94.8125 L 64.953125 -94.8125 C 71.265625 -94.8125 74.421875 -97.972656 74.421875 -104.296875 L 74.421875 -148.859375 C 74.421875 -155.179688 71.265625 -158.34375 64.953125 -158.34375 L 44.09375 -158.34375 Z M 44.09375 -94.8125 "/></g></g></g><g fill="#5f1d72" fill-opacity="1"><g transform="translate(1052.561866, 477.249712)"><g><path d="M 15.640625 -189.625 L 40.296875 -189.625 C 42.828125 -189.625 44.09375 -188.359375 44.09375 -185.828125 L 44.09375 -3.796875 C 44.09375 -1.265625 42.828125 0 40.296875 0 L 15.640625 0 C 13.109375 0 11.84375 -1.265625 11.84375 -3.796875 L 11.84375 -185.828125 C 11.84375 -188.359375 13.109375 -189.625 15.640625 -189.625 Z M 15.640625 -189.625 "/></g></g></g><g fill="#5f1d72" fill-opacity="1"><g transform="translate(1120.347826, 477.249712)"><g><path d="M 79.875 -96.703125 L 117.5625 -5.6875 C 118.351562 -4.101562 118.429688 -2.757812 117.796875 -1.65625 C 117.171875 -0.550781 115.910156 0 114.015625 0 L 89.59375 0 C 86.90625 0 85.085938 -1.101562 84.140625 -3.3125 L 61.390625 -60.6875 L 38.640625 -3.3125 C 37.691406 -1.101562 35.875 0 33.1875 0 L 8.765625 0 C 6.867188 0 5.644531 -0.550781 5.09375 -1.65625 C 4.539062 -2.757812 4.582031 -4.101562 5.21875 -5.6875 L 42.671875 -96.703125 L 6.640625 -183.9375 C 6.003906 -185.675781 5.960938 -187.054688 6.515625 -188.078125 C 7.066406 -189.109375 8.289062 -189.625 10.1875 -189.625 L 33.890625 -189.625 C 36.578125 -189.625 38.394531 -188.519531 39.34375 -186.3125 L 61.390625 -130.125 L 83.4375 -186.3125 C 84.382812 -188.519531 86.203125 -189.625 88.890625 -189.625 L 112.59375 -189.625 C 114.488281 -189.625 115.75 -189.109375 116.375 -188.078125 C 117.007812 -187.054688 116.929688 -185.675781 116.140625 -183.9375 Z M 79.875 -96.703125 "/></g></g></g><g fill="#a347c3" fill-opacity="1"><g transform="translate(400.789966, 586.36417)"><g><path d="M 16.5 -68.0625 L 26.03125 -68.0625 C 30.0625 -68.0625 33.109375 -67.023438 35.171875 -64.953125 C 37.242188 -62.890625 38.28125 -59.84375 38.28125 -55.8125 L 38.28125 -46.796875 C 38.28125 -45.890625 37.828125 -45.4375 36.921875 -45.4375 L 28.078125 -45.4375 C 27.171875 -45.4375 26.71875 -45.890625 26.71875 -46.796875 L 26.71875 -53.421875 C 26.71875 -55.691406 25.582031 -56.828125 23.3125 -56.828125 L 19.234375 -56.828125 C 16.960938 -56.828125 15.828125 -55.691406 15.828125 -53.421875 L 15.828125 -41.6875 L 36.078125 -35.046875 C 37.546875 -34.421875 38.28125 -33.375 38.28125 -31.90625 L 38.28125 -12.25 C 38.28125 -8.28125 37.242188 -5.242188 35.171875 -3.140625 C 33.109375 -1.046875 30.0625 0 26.03125 0 L 16.5 0 C 12.53125 0 9.492188 -1.046875 7.390625 -3.140625 C 5.296875 -5.242188 4.25 -8.28125 4.25 -12.25 L 4.25 -21.1875 C 4.25 -22.09375 4.703125 -22.546875 5.609375 -22.546875 L 14.46875 -22.546875 C 15.375 -22.546875 15.828125 -22.09375 15.828125 -21.1875 L 15.828125 -14.640625 C 15.828125 -12.367188 16.960938 -11.234375 19.234375 -11.234375 L 23.3125 -11.234375 C 25.582031 -11.234375 26.71875 -12.367188 26.71875 -14.640625 L 26.71875 -25.953125 L 6.546875 -32.578125 C 5.015625 -33.085938 4.25 -34.140625 4.25 -35.734375 L 4.25 -55.8125 C 4.25 -59.84375 5.296875 -62.890625 7.390625 -64.953125 C 9.492188 -67.023438 12.53125 -68.0625 16.5 -68.0625 Z M 16.5 -68.0625 "/></g></g></g><g fill="#a347c3" fill-opacity="1"><g transform="translate(447.57296, 586.36417)"><g><path d="M 39.8125 -68.0625 L 51.046875 -68.0625 C 52.179688 -68.0625 52.75 -67.492188 52.75 -66.359375 L 52.75 -1.703125 C 52.75 -0.566406 52.179688 0 51.046875 0 L 43.140625 0 C 42.003906 0 41.4375 -0.566406 41.4375 -1.703125 L 41.4375 -39.984375 L 40.84375 -39.984375 L 32.421875 -1.53125 C 32.191406 -0.507812 31.566406 0 30.546875 0 L 26.375 0 C 25.40625 0 24.78125 -0.507812 24.5 -1.53125 L 16.078125 -39.984375 L 15.484375 -39.984375 L 15.484375 -1.703125 C 15.484375 -0.566406 14.914062 0 13.78125 0 L 5.953125 0 C 4.816406 0 4.25 -0.566406 4.25 -1.703125 L 4.25 -66.359375 C 4.25 -67.492188 4.816406 -68.0625 5.953125 -68.0625 L 17.1875 -68.0625 C 18.207031 -68.0625 18.832031 -67.550781 19.0625 -66.53125 L 28.5 -24.15625 L 37.9375 -66.53125 C 38.226562 -67.550781 38.851562 -68.0625 39.8125 -68.0625 Z M 39.8125 -68.0625 "/></g></g></g><g fill="#a347c3" fill-opacity="1"><g transform="translate(508.815449, 586.36417)"><g><path d="M 45.265625 0 L 36.25 0 C 35.507812 0 35.050781 -0.394531 34.875 -1.1875 L 32.5 -13.609375 L 17.359375 -13.609375 L 15.0625 -1.1875 C 14.882812 -0.394531 14.429688 0 13.703125 0 L 4.59375 0 C 3.570312 0 3.203125 -0.484375 3.484375 -1.453125 L 17.609375 -66.875 C 17.773438 -67.664062 18.257812 -68.0625 19.0625 -68.0625 L 30.890625 -68.0625 C 31.679688 -68.0625 32.160156 -67.664062 32.328125 -66.875 L 46.453125 -1.453125 C 46.617188 -0.484375 46.222656 0 45.265625 0 Z M 30.375 -23.484375 L 24.921875 -53.171875 L 19.484375 -23.484375 Z M 30.375 -23.484375 "/></g></g></g><g fill="#a347c3" fill-opacity="1"><g transform="translate(562.913275, 586.36417)"><g><path d="M 39.21875 -55.8125 L 39.21875 -35.046875 C 39.21875 -29.378906 37.148438 -25.640625 33.015625 -23.828125 L 38.875 -1.53125 C 39.164062 -0.507812 38.769531 0 37.6875 0 L 28.84375 0 C 28.050781 0 27.566406 -0.394531 27.390625 -1.1875 L 21.6875 -22.796875 L 15.828125 -22.796875 L 15.828125 -1.359375 C 15.828125 -0.453125 15.375 0 14.46875 0 L 5.609375 0 C 4.703125 0 4.25 -0.453125 4.25 -1.359375 L 4.25 -66.703125 C 4.25 -67.609375 4.703125 -68.0625 5.609375 -68.0625 L 26.96875 -68.0625 C 31 -68.0625 34.046875 -67.023438 36.109375 -64.953125 C 38.179688 -62.890625 39.21875 -59.84375 39.21875 -55.8125 Z M 15.828125 -34.03125 L 24.25 -34.03125 C 26.519531 -34.03125 27.65625 -35.164062 27.65625 -37.4375 L 27.65625 -53.421875 C 27.65625 -55.691406 26.519531 -56.828125 24.25 -56.828125 L 15.828125 -56.828125 Z M 15.828125 -34.03125 "/></g></g></g><g fill="#a347c3" fill-opacity="1"><g transform="translate(610.631862, 586.36417)"><g><path d="M 3.90625 -68.0625 L 35.21875 -68.0625 C 36.125 -68.0625 36.578125 -67.609375 36.578125 -66.703125 L 36.578125 -58.1875 C 36.578125 -57.28125 36.125 -56.828125 35.21875 -56.828125 L 25.359375 -56.828125 L 25.359375 -1.359375 C 25.359375 -0.453125 24.898438 0 23.984375 0 L 15.140625 0 C 14.234375 0 13.78125 -0.453125 13.78125 -1.359375 L 13.78125 -56.828125 L 3.90625 -56.828125 C 3 -56.828125 2.546875 -57.28125 2.546875 -58.1875 L 2.546875 -66.703125 C 2.546875 -67.609375 3 -68.0625 3.90625 -68.0625 Z M 3.90625 -68.0625 "/></g></g></g><g fill="#a347c3" fill-opacity="1"><g transform="translate(654.012642, 586.36417)"><g><path d="M 4.25 -1.359375 L 4.25 -66.703125 C 4.25 -67.609375 4.703125 -68.0625 5.609375 -68.0625 L 26.03125 -68.0625 C 30.0625 -68.0625 33.109375 -67.023438 35.171875 -64.953125 C 37.242188 -62.890625 38.28125 -59.84375 38.28125 -55.8125 L 38.28125 -35.046875 C 38.28125 -31.078125 37.242188 -28.039062 35.171875 -25.9375 C 33.109375 -23.84375 30.0625 -22.796875 26.03125 -22.796875 L 15.828125 -22.796875 L 15.828125 -1.359375 C 15.828125 -0.453125 15.375 0 14.46875 0 L 5.609375 0 C 4.703125 0 4.25 -0.453125 4.25 -1.359375 Z M 15.828125 -34.03125 L 23.3125 -34.03125 C 25.582031 -34.03125 26.71875 -35.164062 26.71875 -37.4375 L 26.71875 -53.421875 C 26.71875 -55.691406 25.582031 -56.828125 23.3125 -56.828125 L 15.828125 -56.828125 Z M 15.828125 -34.03125 "/></g></g></g><g fill="#a347c3" fill-opacity="1"><g transform="translate(700.79565, 586.36417)"><g><path d="M 26.71875 -39.640625 L 26.71875 -66.703125 C 26.71875 -67.609375 27.171875 -68.0625 28.078125 -68.0625 L 36.84375 -68.0625 C 37.800781 -68.0625 38.28125 -67.609375 38.28125 -66.703125 L 38.28125 -1.359375 C 38.28125 -0.453125 37.800781 0 36.84375 0 L 28.078125 0 C 27.171875 0 26.71875 -0.453125 26.71875 -1.359375 L 26.71875 -28.421875 L 15.828125 -28.421875 L 15.828125 -1.359375 C 15.828125 -0.453125 15.375 0 14.46875 0 L 5.703125 0 C 4.734375 0 4.25 -0.453125 4.25 -1.359375 L 4.25 -66.703125 C 4.25 -67.609375 4.734375 -68.0625 5.703125 -68.0625 L 14.46875 -68.0625 C 15.375 -68.0625 15.828125 -67.609375 15.828125 -66.703125 L 15.828125 -39.640625 Z M 26.71875 -39.640625 "/></g></g></g><g fill="#a347c3" fill-opacity="1"><g transform="translate(747.57864, 586.36417)"><g><path d="M 4.25 -12.25 L 4.25 -55.8125 C 4.25 -59.84375 5.296875 -62.890625 7.390625 -64.953125 C 9.492188 -67.023438 12.53125 -68.0625 16.5 -68.0625 L 26.03125 -68.0625 C 30.0625 -68.0625 33.109375 -67.023438 35.171875 -64.953125 C 37.242188 -62.890625 38.28125 -59.84375 38.28125 -55.8125 L 38.28125 -12.25 C 38.28125 -8.28125 37.242188 -5.242188 35.171875 -3.140625 C 33.109375 -1.046875 30.0625 0 26.03125 0 L 16.5 0 C 12.53125 0 9.492188 -1.046875 7.390625 -3.140625 C 5.296875 -5.242188 4.25 -8.28125 4.25 -12.25 Z M 18.96875 -10.96875 L 23.90625 -10.96875 C 26.175781 -10.96875 27.3125 -12.101562 27.3125 -14.375 L 27.3125 -53.6875 C 27.3125 -55.957031 26.175781 -57.09375 23.90625 -57.09375 L 18.96875 -57.09375 C 16.695312 -57.09375 15.5625 -55.957031 15.5625 -53.6875 L 15.5625 -14.375 C 15.5625 -12.101562 16.695312 -10.96875 18.96875 -10.96875 Z M 18.96875 -10.96875 "/></g></g></g><g fill="#a347c3" fill-opacity="1"><g transform="translate(794.36163, 586.36417)"><g><path d="M 30.375 -68.0625 L 39.21875 -68.0625 C 40.125 -68.0625 40.578125 -67.609375 40.578125 -66.703125 L 40.578125 -1.359375 C 40.578125 -0.453125 40.125 0 39.21875 0 L 30.796875 0 C 30.003906 0 29.492188 -0.367188 29.265625 -1.109375 L 16.25 -37.4375 L 15.828125 -37.4375 L 15.828125 -1.359375 C 15.828125 -0.453125 15.375 0 14.46875 0 L 5.609375 0 C 4.703125 0 4.25 -0.453125 4.25 -1.359375 L 4.25 -66.703125 C 4.25 -67.609375 4.703125 -68.0625 5.609375 -68.0625 L 14.03125 -68.0625 C 14.832031 -68.0625 15.34375 -67.691406 15.5625 -66.953125 L 28.5 -30.796875 L 29.015625 -30.796875 L 29.015625 -66.703125 C 29.015625 -67.609375 29.46875 -68.0625 30.375 -68.0625 Z M 30.375 -68.0625 "/></g></g></g><g fill="#a347c3" fill-opacity="1"><g transform="translate(843.441143, 586.36417)"><g><path d="M 38.203125 -66.703125 L 38.203125 -58.1875 C 38.203125 -57.226562 37.75 -56.75 36.84375 -56.75 L 15.5625 -56.75 L 15.5625 -39.734375 L 31.8125 -39.734375 C 32.726562 -39.734375 33.1875 -39.25 33.1875 -38.28125 L 33.1875 -29.859375 C 33.1875 -28.898438 32.726562 -28.421875 31.8125 -28.421875 L 15.5625 -28.421875 L 15.5625 -11.234375 L 36.84375 -11.234375 C 37.75 -11.234375 38.203125 -10.78125 38.203125 -9.875 L 38.203125 -1.359375 C 38.203125 -0.453125 37.75 0 36.84375 0 L 5.53125 0 C 4.675781 0 4.25 -0.453125 4.25 -1.359375 L 4.25 -66.703125 C 4.25 -67.609375 4.675781 -68.0625 5.53125 -68.0625 L 36.84375 -68.0625 C 37.75 -68.0625 38.203125 -67.609375 38.203125 -66.703125 Z M 38.203125 -66.703125 "/></g></g></g><g fill="#a347c3" fill-opacity="1"><g transform="translate(890.139053, 586.36417)"><g/></g></g><g fill="#a347c3" fill-opacity="1"><g transform="translate(915.658129, 586.36417)"><g><path d="M 4.25 -12.25 L 4.25 -55.8125 C 4.25 -59.84375 5.296875 -62.890625 7.390625 -64.953125 C 9.492188 -67.023438 12.53125 -68.0625 16.5 -68.0625 L 26.03125 -68.0625 C 30.0625 -68.0625 33.109375 -67.023438 35.171875 -64.953125 C 37.242188 -62.890625 38.28125 -59.84375 38.28125 -55.8125 L 38.28125 -12.25 C 38.28125 -8.28125 37.242188 -5.242188 35.171875 -3.140625 C 33.109375 -1.046875 30.0625 0 26.03125 0 L 16.5 0 C 12.53125 0 9.492188 -1.046875 7.390625 -3.140625 C 5.296875 -5.242188 4.25 -8.28125 4.25 -12.25 Z M 18.96875 -10.96875 L 23.90625 -10.96875 C 26.175781 -10.96875 27.3125 -12.101562 27.3125 -14.375 L 27.3125 -53.6875 C 27.3125 -55.957031 26.175781 -57.09375 23.90625 -57.09375 L 18.96875 -57.09375 C 16.695312 -57.09375 15.5625 -55.957031 15.5625 -53.6875 L 15.5625 -14.375 C 15.5625 -12.101562 16.695312 -10.96875 18.96875 -10.96875 Z M 18.96875 -10.96875 "/></g></g></g><g fill="#a347c3" fill-opacity="1"><g transform="translate(962.441119, 586.36417)"><g><path d="M 30.375 -68.0625 L 39.21875 -68.0625 C 40.125 -68.0625 40.578125 -67.609375 40.578125 -66.703125 L 40.578125 -1.359375 C 40.578125 -0.453125 40.125 0 39.21875 0 L 30.796875 0 C 30.003906 0 29.492188 -0.367188 29.265625 -1.109375 L 16.25 -37.4375 L 15.828125 -37.4375 L 15.828125 -1.359375 C 15.828125 -0.453125 15.375 0 14.46875 0 L 5.609375 0 C 4.703125 0 4.25 -0.453125 4.25 -1.359375 L 4.25 -66.703125 C 4.25 -67.609375 4.703125 -68.0625 5.609375 -68.0625 L 14.03125 -68.0625 C 14.832031 -68.0625 15.34375 -67.691406 15.5625 -66.953125 L 28.5 -30.796875 L 29.015625 -30.796875 L 29.015625 -66.703125 C 29.015625 -67.609375 29.46875 -68.0625 30.375 -68.0625 Z M 30.375 -68.0625 "/></g></g></g><g fill="#a347c3" fill-opacity="1"><g transform="translate(1011.520667, 586.36417)"><g><path d="M 15.828125 -11.234375 L 15.828125 -66.703125 C 15.828125 -67.609375 15.375 -68.0625 14.46875 -68.0625 L 5.609375 -68.0625 C 4.703125 -68.0625 4.25 -67.609375 4.25 -66.703125 L 4.25 -1.359375 C 4.25 -0.453125 4.703125 0 5.609375 0 L 36.078125 0 C 36.984375 0 37.4375 -0.453125 37.4375 -1.359375 L 37.4375 -9.875 C 37.4375 -10.78125 36.984375 -11.234375 36.078125 -11.234375 Z M 15.828125 -11.234375 "/></g></g></g><g fill="#a347c3" fill-opacity="1"><g transform="translate(1057.453139, 586.36417)"><g><path d="M 5.609375 -68.0625 L 14.46875 -68.0625 C 15.375 -68.0625 15.828125 -67.609375 15.828125 -66.703125 L 15.828125 -1.359375 C 15.828125 -0.453125 15.375 0 14.46875 0 L 5.609375 0 C 4.703125 0 4.25 -0.453125 4.25 -1.359375 L 4.25 -66.703125 C 4.25 -67.609375 4.703125 -68.0625 5.609375 -68.0625 Z M 5.609375 -68.0625 "/></g></g></g><g fill="#a347c3" fill-opacity="1"><g transform="translate(1081.781449, 586.36417)"><g><path d="M 30.375 -68.0625 L 39.21875 -68.0625 C 40.125 -68.0625 40.578125 -67.609375 40.578125 -66.703125 L 40.578125 -1.359375 C 40.578125 -0.453125 40.125 0 39.21875 0 L 30.796875 0 C 30.003906 0 29.492188 -0.367188 29.265625 -1.109375 L 16.25 -37.4375 L 15.828125 -37.4375 L 15.828125 -1.359375 C 15.828125 -0.453125 15.375 0 14.46875 0 L 5.609375 0 C 4.703125 0 4.25 -0.453125 4.25 -1.359375 L 4.25 -66.703125 C 4.25 -67.609375 4.703125 -68.0625 5.609375 -68.0625 L 14.03125 -68.0625 C 14.832031 -68.0625 15.34375 -67.691406 15.5625 -66.953125 L 28.5 -30.796875 L 29.015625 -30.796875 L 29.015625 -66.703125 C 29.015625 -67.609375 29.46875 -68.0625 30.375 -68.0625 Z M 30.375 -68.0625 "/></g></g></g><g fill="#a347c3" fill-opacity="1"><g transform="translate(1130.860961, 586.36417)"><g><path d="M 38.203125 -66.703125 L 38.203125 -58.1875 C 38.203125 -57.226562 37.75 -56.75 36.84375 -56.75 L 15.5625 -56.75 L 15.5625 -39.734375 L 31.8125 -39.734375 C 32.726562 -39.734375 33.1875 -39.25 33.1875 -38.28125 L 33.1875 -29.859375 C 33.1875 -28.898438 32.726562 -28.421875 31.8125 -28.421875 L 15.5625 -28.421875 L 15.5625 -11.234375 L 36.84375 -11.234375 C 37.75 -11.234375 38.203125 -10.78125 38.203125 -9.875 L 38.203125 -1.359375 C 38.203125 -0.453125 37.75 0 36.84375 0 L 5.53125 0 C 4.675781 0 4.25 -0.453125 4.25 -1.359375 L 4.25 -66.703125 C 4.25 -67.609375 4.675781 -68.0625 5.53125 -68.0625 L 36.84375 -68.0625 C 37.75 -68.0625 38.203125 -67.609375 38.203125 -66.703125 Z M 38.203125 -66.703125 "/></g></g></g><g fill="#a347c3" fill-opacity="1"><g transform="translate(1177.558872, 586.36417)"><g/></g></g><g fill="#a347c3" fill-opacity="1"><g transform="translate(1203.077948, 586.36417)"><g><path d="M 16.5 -68.0625 L 26.03125 -68.0625 C 30.0625 -68.0625 33.109375 -67.023438 35.171875 -64.953125 C 37.242188 -62.890625 38.28125 -59.84375 38.28125 -55.8125 L 38.28125 -46.796875 C 38.28125 -45.890625 37.828125 -45.4375 36.921875 -45.4375 L 28.078125 -45.4375 C 27.171875 -45.4375 26.71875 -45.890625 26.71875 -46.796875 L 26.71875 -53.421875 C 26.71875 -55.691406 25.582031 -56.828125 23.3125 -56.828125 L 19.234375 -56.828125 C 16.960938 -56.828125 15.828125 -55.691406 15.828125 -53.421875 L 15.828125 -41.6875 L 36.078125 -35.046875 C 37.546875 -34.421875 38.28125 -33.375 38.28125 -31.90625 L 38.28125 -12.25 C 38.28125 -8.28125 37.242188 -5.242188 35.171875 -3.140625 C 33.109375 -1.046875 30.0625 0 26.03125 0 L 16.5 0 C 12.53125 0 9.492188 -1.046875 7.390625 -3.140625 C 5.296875 -5.242188 4.25 -8.28125 4.25 -12.25 L 4.25 -21.1875 C 4.25 -22.09375 4.703125 -22.546875 5.609375 -22.546875 L 14.46875 -22.546875 C 15.375 -22.546875 15.828125 -22.09375 15.828125 -21.1875 L 15.828125 -14.640625 C 15.828125 -12.367188 16.960938 -11.234375 19.234375 -11.234375 L 23.3125 -11.234375 C 25.582031 -11.234375 26.71875 -12.367188 26.71875 -14.640625 L 26.71875 -25.953125 L 6.546875 -32.578125 C 5.015625 -33.085938 4.25 -34.140625 4.25 -35.734375 L 4.25 -55.8125 C 4.25 -59.84375 5.296875 -62.890625 7.390625 -64.953125 C 9.492188 -67.023438 12.53125 -68.0625 16.5 -68.0625 Z M 16.5 -68.0625 "/></g></g></g><g fill="#a347c3" fill-opacity="1"><g transform="translate(1249.860938, 586.36417)"><g><path d="M 26.71875 -39.640625 L 26.71875 -66.703125 C 26.71875 -67.609375 27.171875 -68.0625 28.078125 -68.0625 L 36.84375 -68.0625 C 37.800781 -68.0625 38.28125 -67.609375 38.28125 -66.703125 L 38.28125 -1.359375 C 38.28125 -0.453125 37.800781 0 36.84375 0 L 28.078125 0 C 27.171875 0 26.71875 -0.453125 26.71875 -1.359375 L 26.71875 -28.421875 L 15.828125 -28.421875 L 15.828125 -1.359375 C 15.828125 -0.453125 15.375 0 14.46875 0 L 5.703125 0 C 4.734375 0 4.25 -0.453125 4.25 -1.359375 L 4.25 -66.703125 C 4.25 -67.609375 4.734375 -68.0625 5.703125 -68.0625 L 14.46875 -68.0625 C 15.375 -68.0625 15.828125 -67.609375 15.828125 -66.703125 L 15.828125 -39.640625 Z M 26.71875 -39.640625 "/></g></g></g><g fill="#a347c3" fill-opacity="1"><g transform="translate(1296.643928, 586.36417)"><g><path d="M 4.25 -12.25 L 4.25 -55.8125 C 4.25 -59.84375 5.296875 -62.890625 7.390625 -64.953125 C 9.492188 -67.023438 12.53125 -68.0625 16.5 -68.0625 L 26.03125 -68.0625 C 30.0625 -68.0625 33.109375 -67.023438 35.171875 -64.953125 C 37.242188 -62.890625 38.28125 -59.84375 38.28125 -55.8125 L 38.28125 -12.25 C 38.28125 -8.28125 37.242188 -5.242188 35.171875 -3.140625 C 33.109375 -1.046875 30.0625 0 26.03125 0 L 16.5 0 C 12.53125 0 9.492188 -1.046875 7.390625 -3.140625 C 5.296875 -5.242188 4.25 -8.28125 4.25 -12.25 Z M 18.96875 -10.96875 L 23.90625 -10.96875 C 26.175781 -10.96875 27.3125 -12.101562 27.3125 -14.375 L 27.3125 -53.6875 C 27.3125 -55.957031 26.175781 -57.09375 23.90625 -57.09375 L 18.96875 -57.09375 C 16.695312 -57.09375 15.5625 -55.957031 15.5625 -53.6875 L 15.5625 -14.375 C 15.5625 -12.101562 16.695312 -10.96875 18.96875 -10.96875 Z M 18.96875 -10.96875 "/></g></g></g><g fill="#a347c3" fill-opacity="1"><g transform="translate(1343.426918, 586.36417)"><g><path d="M 4.25 -1.359375 L 4.25 -66.703125 C 4.25 -67.609375 4.703125 -68.0625 5.609375 -68.0625 L 26.03125 -68.0625 C 30.0625 -68.0625 33.109375 -67.023438 35.171875 -64.953125 C 37.242188 -62.890625 38.28125 -59.84375 38.28125 -55.8125 L 38.28125 -35.046875 C 38.28125 -31.078125 37.242188 -28.039062 35.171875 -25.9375 C 33.109375 -23.84375 30.0625 -22.796875 26.03125 -22.796875 L 15.828125 -22.796875 L 15.828125 -1.359375 C 15.828125 -0.453125 15.375 0 14.46875 0 L 5.609375 0 C 4.703125 0 4.25 -0.453125 4.25 -1.359375 Z M 15.828125 -34.03125 L 23.3125 -34.03125 C 25.582031 -34.03125 26.71875 -35.164062 26.71875 -37.4375 L 26.71875 -53.421875 C 26.71875 -55.691406 25.582031 -56.828125 23.3125 -56.828125 L 15.828125 -56.828125 Z M 15.828125 -34.03125 "/></g></g></g></svg>